<svg width="16" height="16" viewBox="0 0 16 16" fill="none" xmlns="http://www.w3.org/2000/svg">
<path fill-rule="evenodd" clip-rule="evenodd" d="M10.8332 2.78656C10.4622 2.42403 10.026 2.13484 9.54756 1.93419V1.91999C8.55437 1.49347 7.42961 1.49347 6.43641 1.91999C5.47626 2.32651 4.71201 3.09076 4.30549 4.05091C4.10109 4.54143 3.99722 5.06799 4.00006 5.59938C4.0102 6.6498 4.21992 7.68871 4.61802 8.66081C5.00554 9.64107 5.46616 10.5908 5.99602 11.502C6.60356 12.5066 7.27005 13.4743 7.99199 14.4001C8.71369 13.4766 9.38018 12.5113 9.98795 11.5091C10.5178 10.5979 10.9784 9.64817 11.366 8.66791C11.7641 7.69581 11.9738 6.6569 11.9839 5.60648C11.9877 5.0727 11.8838 4.54363 11.6785 4.05091C11.4796 3.5796 11.1927 3.15051 10.8332 2.78656ZM10.3999 5.60649C10.4104 6.24669 10.1529 6.86215 9.68962 7.30412C9.24665 7.76595 8.63186 8.02319 7.99199 8.01443C7.35212 8.02319 6.73732 7.76595 6.29435 7.30412C5.83107 6.86215 5.57355 6.24669 5.58404 5.60649C5.5781 4.96924 5.83504 4.35771 6.29435 3.91595C6.73732 3.45412 7.35212 3.19688 7.99199 3.20564C8.63186 3.19688 9.24665 3.45412 9.68962 3.91595C10.1489 4.35771 10.4059 4.96924 10.3999 5.60649Z" fill="black"/>
</svg>
