<svg width="12" height="12" viewBox="0 0 12 12" fill="none" xmlns="http://www.w3.org/2000/svg">
<path d="M8.42374 8.73214C8.91595 8.93022 9.39128 9.16789 9.84506 9.4428C10.297 9.72182 10.7123 10.056 11.0816 10.4377C11.3934 10.7366 11.579 11.1434 11.6004 11.5748H0.400391C0.418168 11.1355 0.609924 10.7213 0.933386 10.4235C1.3035 10.0468 1.71884 9.7174 2.16993 9.4428C2.62292 9.16644 3.09837 8.92871 3.59125 8.73214C3.92295 8.58086 4.27116 8.46877 4.62882 8.39813C4.77095 8.39813 4.86334 8.09966 4.91308 7.59509C4.4249 7.06238 4.0801 6.41435 3.91105 5.71184C3.66943 5.71184 3.50597 5.49864 3.40648 5.08646C3.28807 4.76474 3.36865 4.40349 3.61257 4.1626C3.61257 4.04889 3.61257 3.81438 3.56283 3.45194C3.5366 3.07626 3.57506 2.69887 3.67653 2.3362C3.80242 1.92417 4.05019 1.55995 4.38719 1.29153C4.84869 0.940471 5.42189 0.768765 6.00039 0.808285C6.58651 0.758988 7.17041 0.925818 7.64202 1.27732C7.97901 1.54574 8.22678 1.90996 8.35268 2.32199C8.45578 2.6892 8.49426 3.07155 8.46638 3.45194C8.46638 3.81438 8.41664 4.04889 8.41664 4.1626C8.66055 4.40349 8.74114 4.76474 8.62273 5.08646C8.52323 5.49864 8.35978 5.71184 8.11816 5.71184C7.95322 6.41294 7.61338 7.06084 7.13034 7.59509C7.18009 8.09966 7.27247 8.36971 7.4146 8.39813C7.76255 8.47087 8.10111 8.58293 8.42374 8.73214Z" fill="black"/>
</svg>
