<svg width="10" height="12" viewBox="0 0 10 12" fill="none" xmlns="http://www.w3.org/2000/svg">
<path d="M8.73553 0.400391C8.32332 0.400367 7.98792 0.7322 7.98353 1.14439V5.25639H5.74353V1.14439C5.74353 0.733491 5.41043 0.400391 4.99953 0.400391C4.58863 0.400391 4.25553 0.733491 4.25553 1.14439V5.25639H2.01553V1.14439C1.97584 0.761112 1.65286 0.46985 1.26753 0.46985C0.882203 0.46985 0.559222 0.761112 0.519531 1.14439V10.8564C0.559222 11.2397 0.882203 11.5309 1.26753 11.5309C1.65286 11.5309 1.97584 11.2397 2.01553 10.8564V6.74439H4.25553V10.8564C4.25553 11.2673 4.58863 11.6004 4.99953 11.6004C5.41043 11.6004 5.74353 11.2673 5.74353 10.8564V6.74439H8.73553C8.93285 6.74439 9.12209 6.66601 9.26162 6.52648C9.40114 6.38695 9.47953 6.19771 9.47953 6.00039V1.14439C9.47953 0.733491 9.14643 0.400391 8.73553 0.400391Z" fill="black"/>
</svg>
